<svg width="24" height="23" viewBox="0 0 24 23" fill="none" xmlns="http://www.w3.org/2000/svg">
<path d="M21.3431 9.13953C21.3431 8.90532 21.25 8.6807 21.0844 8.51509C20.9188 8.34948 20.6942 8.25644 20.46 8.25644C20.2258 8.25644 20.0012 8.34948 19.8355 8.51509C19.6699 8.6807 19.5769 8.90532 19.5769 9.13953H21.3431ZM4.85889 9.13953C4.85889 8.90532 4.76585 8.6807 4.60024 8.51509C4.43463 8.34948 4.21002 8.25644 3.97581 8.25644C3.7416 8.25644 3.51699 8.34948 3.35138 8.51509C3.18577 8.6807 3.09273 8.90532 3.09273 9.13953H4.85889ZM22.1908 12.1185C22.2717 12.2052 22.3692 12.2748 22.4775 12.3231C22.5858 12.3713 22.7027 12.3973 22.8213 12.3994C22.9399 12.4015 23.0577 12.3797 23.1676 12.3352C23.2776 12.2908 23.3775 12.2247 23.4613 12.1409C23.5452 12.057 23.6113 11.9571 23.6557 11.8472C23.7001 11.7372 23.7219 11.6194 23.7198 11.5009C23.7177 11.3823 23.6918 11.2653 23.6435 11.157C23.5953 11.0487 23.5257 10.9512 23.4389 10.8704L22.1908 12.1185ZM12.2179 0.89744L12.8419 0.273397C12.6764 0.108025 12.4519 0.0151367 12.2179 0.0151367C11.9839 0.0151367 11.7594 0.108025 11.5939 0.273397L12.2179 0.89744ZM0.996885 10.8704C0.910123 10.9512 0.840534 11.0487 0.792269 11.157C0.744003 11.2653 0.71805 11.3823 0.715958 11.5009C0.713866 11.6194 0.735677 11.7372 0.780092 11.8472C0.824506 11.9571 0.890613 12.057 0.974469 12.1409C1.05832 12.2247 1.15821 12.2908 1.26817 12.3352C1.37813 12.3797 1.49591 12.4015 1.61448 12.3994C1.73305 12.3973 1.84999 12.3713 1.95831 12.3231C2.06663 12.2748 2.16413 12.2052 2.24497 12.1185L0.996885 10.8704ZM6.33069 22.9745H18.1051V21.2083H6.33069V22.9745ZM21.3431 19.7365V9.13953H19.5769V19.7365H21.3431ZM4.85889 19.7365V9.13953H3.09273V19.7365H4.85889ZM23.4389 10.8704L12.8419 0.273397L11.5939 1.52148L22.1908 12.1185L23.4389 10.8704ZM11.5939 0.273397L0.996885 10.8704L2.24497 12.1185L12.8419 1.52148L11.5939 0.273397ZM18.1051 22.9745C18.9639 22.9745 19.7875 22.6333 20.3947 22.0261C21.0019 21.4188 21.3431 20.5953 21.3431 19.7365H19.5769C19.5769 20.5489 18.9175 21.2083 18.1051 21.2083V22.9745ZM6.33069 21.2083C5.51826 21.2083 4.85889 20.5489 4.85889 19.7365H3.09273C3.09273 20.5953 3.43387 21.4188 4.04111 22.0261C4.64834 22.6333 5.47193 22.9745 6.33069 22.9745V21.2083Z" fill="black"/>
</svg>
