<svg width="438" height="438" viewBox="0 0 438 438" fill="none" xmlns="http://www.w3.org/2000/svg">
<mask id="mask0_2336_218" style="mask-type:alpha" maskUnits="userSpaceOnUse" x="0" y="0" width="438" height="438">
<circle cx="219" cy="219" r="219" fill="black"/>
</mask>
<g mask="url(#mask0_2336_218)">
<path d="M286.384 187.875L326.689 228.181C333.23 234.634 338.429 242.317 341.988 250.788C345.546 259.259 347.394 268.35 347.425 277.538C347.456 286.726 345.669 295.829 342.167 304.324C338.665 312.818 333.517 320.536 327.021 327.033C320.524 333.53 312.806 338.678 304.311 342.18C295.817 345.682 286.713 347.469 277.525 347.438C268.337 347.407 259.246 345.559 250.775 342C242.305 338.442 234.621 333.242 228.168 326.702L214.741 313.275C212.926 311.524 211.477 309.428 210.481 307.11C209.484 304.792 208.958 302.3 208.935 299.777C208.912 297.254 209.392 294.752 210.346 292.416C211.3 290.081 212.71 287.959 214.493 286.174C216.276 284.389 218.397 282.978 220.732 282.021C223.066 281.065 225.568 280.583 228.091 280.603C230.613 280.624 233.107 281.147 235.425 282.142C237.744 283.136 239.841 284.583 241.595 286.397L255.047 299.836C260.995 305.731 269.036 309.029 277.411 309.01C285.785 308.99 293.811 305.654 299.732 299.732C305.653 293.809 308.986 285.783 309.004 277.408C309.021 269.034 305.72 260.993 299.823 255.047L259.518 214.741C255.162 210.383 249.628 207.391 243.596 206.131C237.564 204.871 231.296 205.398 225.559 207.648C223.507 208.459 221.607 209.295 219.808 210.131L213.931 212.879C206.077 216.426 200.035 217.946 192.347 210.27C181.301 199.225 184.164 189.028 197.629 179.743C211.043 170.519 227.264 166.282 243.476 167.767C259.689 169.252 274.869 176.367 286.384 187.875ZM210.257 111.749L223.684 125.175C227.147 128.757 229.064 133.556 229.023 138.538C228.982 143.519 226.986 148.286 223.465 151.81C219.944 155.335 215.18 157.335 210.198 157.381C205.216 157.426 200.416 155.513 196.831 152.054L183.391 138.627C180.471 135.602 176.978 133.189 173.115 131.528C169.252 129.867 165.097 128.993 160.892 128.955C156.687 128.917 152.517 129.717 148.625 131.308C144.733 132.899 141.196 135.25 138.222 138.222C135.248 141.195 132.896 144.73 131.303 148.621C129.709 152.512 128.907 156.682 128.942 160.886C128.978 165.091 129.85 169.247 131.508 173.111C133.167 176.974 135.578 180.469 138.602 183.391L178.907 223.697C183.264 228.055 188.797 231.048 194.829 232.308C200.861 233.568 207.13 233.04 212.867 230.79C214.919 229.979 216.819 229.143 218.617 228.307L224.495 225.559C232.348 222.012 238.403 220.492 246.079 228.168C257.124 239.213 254.261 249.41 240.797 258.695C227.382 267.919 211.161 272.157 194.949 270.671C178.737 269.186 163.556 262.071 152.041 250.563L111.736 210.257C105.196 203.804 99.9966 196.121 96.4378 187.65C92.8791 179.179 91.0312 170.088 91.0004 160.9C90.9696 151.712 92.7566 142.609 96.2585 134.114C99.7604 125.62 104.908 117.902 111.405 111.405C117.902 104.908 125.62 99.7604 134.114 96.2585C142.609 92.7566 151.712 90.9696 160.9 91.0004C170.088 91.0312 179.179 92.8791 187.65 96.4378C196.121 99.9966 203.804 105.208 210.257 111.749Z" fill="white"/>
</g>
</svg>
