<svg width="18" height="23" viewBox="0 0 18 23" fill="none" xmlns="http://www.w3.org/2000/svg">
<path d="M9 5.01763C8.21347 5.01763 7.44461 5.2506 6.79064 5.68708C6.13667 6.12357 5.62696 6.74395 5.32597 7.4698C5.02498 8.19564 4.94622 8.99433 5.09967 9.76488C5.25311 10.5354 5.63186 11.2432 6.18802 11.7988C6.74417 12.3543 7.45276 12.7326 8.22418 12.8859C8.99559 13.0392 9.79518 12.9605 10.5218 12.6598C11.2485 12.3592 11.8696 11.8501 12.3065 11.1968C12.7435 10.5436 12.9767 9.77557 12.9767 8.98993C12.9767 7.93641 12.5578 6.92604 11.812 6.18109C11.0662 5.43614 10.0547 5.01763 9 5.01763ZM9 11.7078C8.46185 11.7078 7.93579 11.5484 7.48833 11.2498C7.04088 10.9511 6.69213 10.5266 6.48619 10.03C6.28025 9.53339 6.22636 8.98691 6.33135 8.45969C6.43634 7.93247 6.69548 7.44819 7.07601 7.06809C7.45654 6.68799 7.94136 6.42913 8.46917 6.32426C8.99698 6.21939 9.54407 6.27322 10.0413 6.47893C10.5384 6.68464 10.9634 7.033 11.2624 7.47995C11.5613 7.9269 11.7209 8.45238 11.7209 8.98993C11.7209 9.71075 11.4343 10.4021 10.924 10.9118C10.4137 11.4215 9.72164 11.7078 9 11.7078ZM9 0C6.6139 0.0027666 4.32633 0.950805 2.6391 2.63614C0.951871 4.32148 0.0027697 6.6065 0 8.98993C0 12.2211 1.5007 15.6529 4.33988 18.9144C5.62135 20.3937 7.06359 21.726 8.64 22.8867C8.74552 22.9604 8.8712 23 9 23C9.12879 23 9.25448 22.9604 9.36 22.8867C10.9364 21.726 12.3786 20.3937 13.6601 18.9144C16.4993 15.6529 18 12.2242 18 8.98993C17.9972 6.6065 17.0481 4.32148 15.3609 2.63614C13.6737 0.950805 11.3861 0.0027666 9 0ZM9 21.5873C7.43023 20.3768 1.25581 15.2222 1.25581 8.98993C1.25581 6.93834 2.07172 4.97078 3.52403 3.52009C4.97635 2.0694 6.94611 1.25441 9 1.25441C11.0539 1.25441 13.0236 2.0694 14.476 3.52009C15.9283 4.97078 16.7442 6.93834 16.7442 8.98993C16.7442 15.2222 10.5698 20.3768 9 21.5873Z" fill="black"/>
</svg>
