<svg width="22" height="22" viewBox="0 0 22 22" fill="none" xmlns="http://www.w3.org/2000/svg">
<path d="M20.9726 18.3153L20.9726 18.3154C21.0862 18.43 21.1499 18.5851 21.15 18.7466C21.1501 18.9082 21.0867 19.0634 20.9732 19.1782L20.973 19.1783L19.1939 20.9721L19.193 20.973C19.0788 21.0863 18.9247 21.15 18.764 21.15C18.6032 21.15 18.4491 21.0863 18.3349 20.9729L18.334 20.9721L13.5885 16.1876L11.2686 18.5266C10.3301 19.4728 8.75962 19.4722 7.82082 18.5267L7.82075 18.5266L5.23405 15.9177C5.23391 15.9175 5.23377 15.9174 5.23363 15.9173C5.19001 15.8738 5.15581 15.8254 5.12866 15.776L5.12787 15.7745L5.12787 15.7745L2.86341 11.5349C2.8634 11.5348 2.86338 11.5348 2.86337 11.5348C2.58635 11.0168 3.16003 10.4204 3.68681 10.7079L3.68666 10.7078L3.6151 10.8396L3.68699 10.708L20.9726 18.3153ZM20.9726 18.3153L16.2249 13.5286L18.3846 11.3511L18.3847 11.351M20.9726 18.3153L18.3847 11.351M18.3847 11.351C18.8409 10.8899 19.0969 10.2655 19.0969 9.61478C19.0969 8.96405 18.8409 8.33964 18.3847 7.87857L18.3846 7.87844M18.3847 11.351L18.3846 7.87844M18.3846 7.87844L15.797 5.27004C15.797 5.26997 15.7969 5.2699 15.7968 5.26983C15.7552 5.22764 15.7076 5.19185 15.6555 5.16365C15.6555 5.16363 15.6555 5.16362 15.6554 5.1636L11.4509 2.8808C11.4508 2.88075 11.4507 2.8807 11.4507 2.88065C10.9234 2.59243 10.3505 3.18953 10.6267 3.70748L10.6267 3.70757M18.3846 7.87844L10.6267 3.70757M10.6267 3.70757L12.8912 7.94728L12.8912 7.94728M10.6267 3.70757L12.8912 7.94728M12.8912 7.94728L12.892 7.94874M12.8912 7.94728L12.892 7.94874M12.892 7.94874C12.9192 7.99822 12.9534 8.04659 12.997 8.09002C12.9971 8.09017 12.9973 8.09032 12.9974 8.09047L14.5091 9.615L13.5881 10.5436M12.892 7.94874L13.5881 10.5436M13.5881 10.5436L6.90106 3.80156L6.90073 3.80123C6.86003 3.76045 6.81385 3.72558 6.76352 3.69763L6.76329 3.69751L1.74961 0.925604C1.74956 0.925579 1.74952 0.925554 1.74947 0.925529C1.22127 0.632323 0.641131 1.23442 0.924209 1.75477C0.924212 1.75477 0.924215 1.75478 0.924219 1.75478L3.67364 6.80994L3.67396 6.81053C3.7016 6.86081 3.73601 6.90714 3.77668 6.94814L3.77668 6.94814L10.4654 13.6914L13.5881 10.5436ZM9.11448 15.9174L9.11452 15.9174L7.23611 14.024L4.89156 12.751L6.15528 15.117L8.68018 17.6632C9.13708 18.1238 9.95135 18.1238 10.4083 17.6632L13.1581 14.8907L13.1581 14.8907L14.9368 13.0965L14.9473 13.0859L14.9487 13.0849L17.5246 10.4873C17.7538 10.2558 17.8827 9.94189 17.8827 9.61432C17.8827 9.28675 17.7538 8.97281 17.5246 8.74134L14.9995 6.19631L12.6549 4.92336L13.9187 7.28936L15.7966 9.1832L15.7967 9.1833L15.6902 9.28892C15.7327 9.33172 15.7664 9.38255 15.7894 9.4385C15.8125 9.49446 15.8243 9.55444 15.8243 9.61502C15.8243 9.67559 15.8125 9.73557 15.7894 9.79153C15.7664 9.84748 15.7327 9.89831 15.6902 9.94111L9.11448 15.9174ZM9.11448 15.9174L9.1176 15.9204M9.11448 15.9174L9.1176 15.9204M9.1176 15.9204C9.23283 16.0301 9.38552 16.0913 9.54445 16.0913C9.70337 16.0913 9.85606 16.0301 9.97129 15.9204L9.97133 15.9205M9.1176 15.9204L9.97133 15.9205M9.97133 15.9205L9.97439 15.9174M9.97133 15.9205L9.97439 15.9174M9.97439 15.9174L11.7534 14.1233M9.97439 15.9174L11.7534 14.1233M11.7534 14.1233C11.7534 14.1232 11.7535 14.1232 11.7535 14.1232C11.8099 14.0664 11.8545 13.999 11.885 13.925C11.9155 13.8509 11.9311 13.7716 11.9311 13.6914C11.9311 13.6113 11.9155 13.5319 11.885 13.4579C11.8545 13.3838 11.8098 13.3164 11.7534 13.2596L4.69781 6.14645L2.9898 3.006L6.10206 4.72684L13.1576 11.8404L11.7534 14.1233ZM13.3547 11.9733C13.2809 11.9425 13.214 11.8973 13.1577 11.8405L13.3547 11.9733ZM13.3547 11.9733C13.4285 12.0042 13.5076 12.0201 13.5876 12.0201M13.3547 11.9733L13.5876 12.0201M13.5876 12.0201C13.6676 12.0201 13.7467 12.0042 13.8206 11.9733M13.5876 12.0201L13.8206 11.9733M13.8206 11.9733C13.8943 11.9425 13.9612 11.8973 14.0176 11.8405L13.8206 11.9733ZM7.891 12.99L7.82022 13.1223L7.89178 12.9904L7.89138 12.9902C7.89125 12.9902 7.89113 12.9901 7.891 12.99ZM8.03346 13.0966L8.03331 13.0964L7.92681 13.2021L8.03372 13.0968C8.03363 13.0968 8.03355 13.0967 8.03346 13.0966ZM9.54445 14.62L9.43881 14.7265L9.54445 14.833L9.65008 14.7265L9.54445 14.62ZM13.4829 16.0811L13.5885 15.9746L13.6942 16.0811H13.4829ZM14.0176 11.8404L15.7966 10.0468L14.0176 11.8404ZM19.6845 18.7466L18.7635 19.6752L14.4462 15.3224L15.3672 14.3938L19.6845 18.7466Z" fill="black" stroke="black" stroke-width="0.3"/>
</svg>
