<svg width="18" height="17" viewBox="0 0 18 17" fill="none" xmlns="http://www.w3.org/2000/svg">
<path d="M16.0875 0H1.9125C0.8577 0 0 0.8073 0 1.8V14.4C0 15.3927 0.8577 16.2 1.9125 16.2H16.0875C17.1423 16.2 18 15.3927 18 14.4V1.8C18 0.8073 17.1423 0 16.0875 0ZM16.0875 14.4H1.9125C1.8612 14.4 1.8261 14.3856 1.8108 14.3856C1.8045 14.3856 1.8009 14.3874 1.8 14.3928L1.7892 1.8414C1.7955 1.8324 1.836 1.8 1.9125 1.8H16.0875C16.1586 1.8009 16.1973 1.8252 16.2 1.8072L16.2108 14.3586C16.2045 14.3676 16.164 14.4 16.0875 14.4Z" fill="black"/>
<path d="M3.59985 3.60004H8.99985V9.00004H3.59985V3.60004ZM9.89985 10.8H3.59985V12.6H14.3999V10.8H10.7999H9.89985ZM10.7999 7.20004H14.3999V9.00004H10.7999V7.20004ZM10.7999 3.60004H14.3999V5.40004H10.7999V3.60004Z" fill="black"/>
</svg>
