<svg width="25" height="25" viewBox="0 0 25 25" fill="none" xmlns="http://www.w3.org/2000/svg">
<path d="M13.5416 19.5312H6.24996C5.49022 19.5312 4.76161 19.2294 4.22439 18.6922C3.68718 18.155 3.38538 17.4264 3.38538 16.6667V8.33333C3.38538 7.5736 3.68718 6.84498 4.22439 6.30777C4.76161 5.77055 5.49022 5.46875 6.24996 5.46875H13.5416C14.3014 5.46875 15.03 5.77055 15.5672 6.30777C16.1044 6.84498 16.4062 7.5736 16.4062 8.33333V16.6667C16.4062 17.4264 16.1044 18.155 15.5672 18.6922C15.03 19.2294 14.3014 19.5312 13.5416 19.5312ZM6.24996 7.03125C5.90463 7.03125 5.57344 7.16843 5.32925 7.41262C5.08506 7.65681 4.94788 7.988 4.94788 8.33333V16.6667C4.94788 17.012 5.08506 17.3432 5.32925 17.5874C5.57344 17.8316 5.90463 17.9688 6.24996 17.9688H13.5416C13.887 17.9688 14.2181 17.8316 14.4623 17.5874C14.7065 17.3432 14.8437 17.012 14.8437 16.6667V8.33333C14.8437 7.988 14.7065 7.65681 14.4623 7.41262C14.2181 7.16843 13.887 7.03125 13.5416 7.03125H6.24996Z" fill="black"/>
<path d="M20.8333 17.4479C20.6903 17.4457 20.5502 17.4062 20.4271 17.3333L15.2187 14.2083C15.1043 14.1387 15.0098 14.0408 14.9441 13.924C14.8784 13.8073 14.8439 13.6756 14.8438 13.5417V11.4583C14.8439 11.3244 14.8784 11.1927 14.9441 11.076C15.0098 10.9592 15.1043 10.8613 15.2187 10.7917L20.4271 7.66668C20.5467 7.59509 20.6835 7.55728 20.8229 7.55728C20.9623 7.55728 21.0991 7.59509 21.2188 7.66668C21.3386 7.73463 21.4383 7.83304 21.5078 7.95195C21.5773 8.07085 21.6141 8.20603 21.6146 8.34376V16.6771C21.6141 16.8148 21.5773 16.95 21.5078 17.0689C21.4383 17.1878 21.3386 17.2862 21.2188 17.3542C21.1012 17.4199 20.9679 17.4524 20.8333 17.4479ZM16.4063 13.1042L20.0521 15.2917V9.70834L16.4063 11.8958V13.1042Z" fill="black"/>
</svg>
