<svg width="438" height="438" viewBox="0 0 438 438" fill="none" xmlns="http://www.w3.org/2000/svg">
<mask id="mask0_2336_217" style="mask-type:alpha" maskUnits="userSpaceOnUse" x="0" y="0" width="438" height="438">
<circle cx="219" cy="219" r="219" fill="black"/>
</mask>
<g mask="url(#mask0_2336_217)">
<path d="M358 131.871C350.354 143.276 340.68 153.431 329.445 161.555C329.601 163.898 329.601 166.398 329.601 168.897C329.601 244.668 272.022 332 166.851 332C134.55 332 104.435 322.47 79 306.222C83.5252 306.691 88.0503 307.003 92.7315 307.003C119.57 307.003 144.225 297.786 163.73 282.476C151.798 282.229 140.241 278.256 130.674 271.114C121.106 263.972 114.006 254.016 110.364 242.637C113.797 243.262 117.386 243.731 121.131 243.731C126.28 243.731 131.43 242.95 136.111 241.7C123.169 239.04 111.539 231.993 103.182 221.748C94.8249 211.503 90.2522 198.685 90.2349 185.458V184.833C98.0369 189.051 106.775 191.707 116.138 192.019C108.301 186.756 101.881 179.641 97.4449 171.303C93.0086 162.965 90.6931 153.661 90.703 144.213C90.703 133.746 93.5117 123.904 98.505 115.467C126.748 150.15 168.879 172.959 216.471 175.303C215.535 171.085 214.911 166.71 214.911 162.18C214.952 147 221.004 132.457 231.739 121.738C242.474 111.019 257.017 105 272.178 105C288.718 105 303.542 111.874 313.997 123.123C326.948 120.467 339.275 115.78 350.354 109.218C345.985 122.498 336.935 133.746 325.075 140.776C336.445 139.532 347.552 136.528 358 131.871Z" fill="white"/>
</g>
</svg>
