<svg width="24" height="18" viewBox="0 0 24 18" fill="none" xmlns="http://www.w3.org/2000/svg">
<path d="M0 1.75C0 0.784 0.784 0 1.75 0H22.25C23.216 0 24 0.784 24 1.75V16.25C24 16.7141 23.8156 17.1592 23.4874 17.4874C23.1592 17.8156 22.7141 18 22.25 18H1.75C1.28587 18 0.840752 17.8156 0.512563 17.4874C0.184374 17.1592 0 16.7141 0 16.25L0 1.75ZM1.75 1.5C1.6837 1.5 1.62011 1.52634 1.57322 1.57322C1.52634 1.62011 1.5 1.6837 1.5 1.75V16.25C1.5 16.388 1.612 16.5 1.75 16.5H22.25C22.3163 16.5 22.3799 16.4737 22.4268 16.4268C22.4737 16.3799 22.5 16.3163 22.5 16.25V1.75C22.5 1.6837 22.4737 1.62011 22.4268 1.57322C22.3799 1.52634 22.3163 1.5 22.25 1.5H1.75Z" fill="black"/>
<path d="M9 12.584V5.41601C9.00015 5.32632 9.02442 5.23833 9.07026 5.16125C9.11611 5.08417 9.18184 5.02084 9.26057 4.97789C9.33931 4.93495 9.42814 4.91397 9.51777 4.91716C9.6074 4.92034 9.69452 4.94758 9.77 4.99601L15.346 8.57901C15.4166 8.62424 15.4747 8.68651 15.5149 8.76008C15.5552 8.83365 15.5763 8.91615 15.5763 9.00001C15.5763 9.08386 15.5552 9.16637 15.5149 9.23993C15.4747 9.3135 15.4166 9.37577 15.346 9.42101L9.77 13.005C9.69452 13.0534 9.6074 13.0807 9.51777 13.0839C9.42814 13.087 9.33931 13.0661 9.26057 13.0231C9.18184 12.9802 9.11611 12.9168 9.07026 12.8398C9.02442 12.7627 9.00015 12.6747 9 12.585V12.584Z" fill="black"/>
</svg>
