<svg width="24" height="19" viewBox="0 0 24 19" fill="none" xmlns="http://www.w3.org/2000/svg">
<path d="M0 2.24475C0 1.27875 0.784 0.494751 1.75 0.494751H22.25C23.216 0.494751 24 1.27875 24 2.24475V16.7448C24 17.2089 23.8156 17.654 23.4874 17.9822C23.1592 18.3104 22.7141 18.4948 22.25 18.4948H1.75C1.28587 18.4948 0.840752 18.3104 0.512563 17.9822C0.184374 17.654 0 17.2089 0 16.7448L0 2.24475ZM1.75 1.99475C1.6837 1.99475 1.62011 2.02109 1.57322 2.06797C1.52634 2.11486 1.5 2.17845 1.5 2.24475V16.7448C1.5 16.8828 1.612 16.9948 1.75 16.9948H22.25C22.3163 16.9948 22.3799 16.9684 22.4268 16.9215C22.4737 16.8746 22.5 16.8111 22.5 16.7448V2.24475C22.5 2.17845 22.4737 2.11486 22.4268 2.06797C22.3799 2.02109 22.3163 1.99475 22.25 1.99475H1.75Z" fill="black"/>
<path d="M9 13.0788V5.91079C9.00015 5.82111 9.02442 5.73311 9.07026 5.65603C9.11611 5.57895 9.18184 5.51562 9.26057 5.47267C9.33931 5.42973 9.42814 5.40875 9.51777 5.41194C9.6074 5.41512 9.69452 5.44236 9.77 5.49079L15.346 9.07379C15.4166 9.11903 15.4747 9.18129 15.5149 9.25486C15.5552 9.32843 15.5763 9.41094 15.5763 9.49479C15.5763 9.57864 15.5552 9.66115 15.5149 9.73472C15.4747 9.80828 15.4166 9.87055 15.346 9.91579L9.77 13.4998C9.69452 13.5482 9.6074 13.5755 9.51777 13.5786C9.42814 13.5818 9.33931 13.5608 9.26057 13.5179C9.18184 13.475 9.11611 13.4116 9.07026 13.3345C9.02442 13.2575 9.00015 13.1695 9 13.0798V13.0788Z" fill="black"/>
</svg>
